<svg xmlns="http://www.w3.org/2000/svg" viewBox="0 0 64 64"><defs><style>.cls-1{fill:#293033;}.cls-2{fill:#e6f2ee;}</style></defs><title>logotipo-arnold-restrepo</title><g id="Capa_1" data-name="Capa 1"><rect class="cls-1" width="64" height="64"/></g><g id="Capa_2" data-name="Capa 2"><path class="cls-2" d="M28,47.05,25.9,41.73h-13l-2.1,5.32H2.71L15.64,17h8.07l12.63,30.1ZM15.25,35.71h8.33L19.46,25Z"/><path class="cls-2" d="M51.11,47.05l-4.38-8.33H40.89v8.33H33V17H46.56q6,0,9.25,2.77a9.62,9.62,0,0,1,3.29,7.79,11.81,11.81,0,0,1-1.38,5.86,9.45,9.45,0,0,1-4,3.85L60,47.05ZM40.89,32.45H46.6a5.33,5.33,0,0,0,3.72-1.2,4.49,4.49,0,0,0,1.31-3.48,4.32,4.32,0,0,0-1.31-3.37,5.38,5.38,0,0,0-3.72-1.18H40.89Z"/></g></svg>